<svg xmlns="http://www.w3.org/2000/svg" viewBox="0 0 1024 1024" width="1024" height="1024">
  
  <path d="M512.00,0.00 C706.56,0.00 803.84,0.00 870.40,27.44 C936.96,54.89 975.87,97.28 996.56,153.60 C1024.00,220.16 1024.00,317.44 1024.00,512.00 C1024.00,706.56 1024.00,803.84 996.56,870.40 C969.11,936.96 926.72,975.87 870.40,996.56 C803.84,1024.00 706.56,1024.00 512.00,1024.00 C317.44,1024.00 220.16,1024.00 153.60,996.56 C87.04,969.11 48.13,926.72 27.44,870.40 C0.00,803.84 0.00,706.56 0.00,512.00 C0.00,317.44 0.00,220.16 27.44,153.60 C54.89,87.04 97.28,48.13 153.60,27.44 C220.16,0.00 317.44,0.00 512.00,0.00Z" fill="#161514"/>
  <g transform="translate(0.00,0.00) scale(5.1200)">
    
  
  <path d="M42.8,133.0 L40.7,128.5 L38.8,123.9 L37.3,119.2 L36.2,114.3 L35.5,109.5 L35.1,104.5 L35.1,99.6 L35.5,94.7 L36.2,89.9 L37.3,85.1 L38.8,80.5 L40.6,76.0 L42.7,71.6 L45.1,67.5 L47.9,63.5 L50.9,59.8 L54.2,56.3 L57.7,53.1 L61.5,50.1 L65.5,47.5 L69.6,45.2 L73.9,43.2 L78.3,41.5 L82.9,40.2 L87.5,39.2 L92.1,38.6 L96.8,38.4 L101.4,38.5 L106.1,38.9 L110.6,39.7 L115.1,40.8 L119.5,42.3 L123.7,44.1 L127.8,46.2 L131.7,48.5 L135.4,51.2 L138.9,54.2 L142.2,57.3 L145.2,60.8 L147.9,64.4 L150.3,68.2 L152.4,72.1 L154.2,76.2 L155.7,80.5 L156.9,84.8 L157.7,89.1 L158.2,93.5 L158.4,98.0 L158.2,102.4 L157.7,106.7 L156.9,111.1 L155.7,115.3 L154.2,119.4 L152.5,123.4 L150.4,127.2 L148.1,130.8 L145.5,134.3 L142.7,137.5 L139.6,140.5 L136.3,143.3 Q136.1,143.1 134.4,141.0 L137.3,138.2 L139.9,135.1 L142.3,131.9 L144.5,128.5 L146.4,125.0 L148.0,121.4 L149.3,117.6 L150.4,113.8 L151.1,109.9 L151.6,106.0 L151.7,102.1 L151.6,98.2 L151.1,94.3 L150.4,90.5 L149.4,86.8 L148.1,83.1 L146.5,79.6 L144.7,76.2 L142.7,73.0 L140.4,69.9 L137.9,67.1 L135.2,64.4 L132.3,62.0 L129.2,59.8 L126.0,57.8 L122.7,56.1 L119.2,54.7 L115.7,53.5 L112.1,52.6 L108.5,52.0 L104.8,51.6 L101.1,51.6 L97.5,51.8 L93.9,52.3 L90.3,53.0 L86.8,54.1 L83.4,55.3 L80.2,56.8 L77.1,58.6 L74.1,60.6 L71.3,62.8 L68.7,65.2 L66.2,67.8 L64.0,70.5 L62.0,73.4 L60.2,76.4 L58.7,79.6 L57.4,82.8 L56.4,86.1 L55.6,89.5 L55.1,92.9 L54.9,96.3 L54.9,99.7 L55.2,103.1 L55.7,106.5 L56.5,109.8 L57.5,113.0 L58.7,116.1 L60.2,119.1 L61.9,122.0 Q59.0,123.7 42.8,133.0 Z" fill="#80C0B0"/>

  </g>
</svg>